<mxfile host="app.diagrams.net" modified="2024-05-02T13:19:41.257Z" agent="Mozilla/5.0 (Windows NT 10.0; Win64; x64) AppleWebKit/537.36 (KHTML, like Gecko) Chrome/124.0.0.0 Safari/537.36" etag="eRDMrKPrRH3r4hzmKS5m" version="24.3.1" type="github">
  <diagram name="Page-1" id="kufOgIJp7YzgBZ6C3QI_">
    <mxGraphModel dx="1050" dy="530" grid="1" gridSize="10" guides="1" tooltips="1" connect="1" arrows="1" fold="1" page="1" pageScale="1" pageWidth="827" pageHeight="1169" math="0" shadow="0">
      <root>
        <mxCell id="0" />
        <mxCell id="1" parent="0" />
        <mxCell id="7UnIo0rN0C2pQ48dTLk2-1" value="Actor" style="shape=umlActor;verticalLabelPosition=bottom;verticalAlign=top;html=1;outlineConnect=0;rotation=-1;" vertex="1" parent="1">
          <mxGeometry x="380" y="220" width="30" height="70" as="geometry" />
        </mxCell>
        <mxCell id="7UnIo0rN0C2pQ48dTLk2-6" value="Dodaje&lt;div&gt;&amp;nbsp;recept&lt;/div&gt;" style="ellipse;whiteSpace=wrap;html=1;verticalAlign=top;" vertex="1" parent="1">
          <mxGeometry x="355" y="90" width="80" height="50" as="geometry" />
        </mxCell>
        <mxCell id="7UnIo0rN0C2pQ48dTLk2-10" value="" style="endArrow=none;html=1;rounded=0;entryX=0.5;entryY=1;entryDx=0;entryDy=0;" edge="1" parent="1" target="7UnIo0rN0C2pQ48dTLk2-6">
          <mxGeometry width="50" height="50" relative="1" as="geometry">
            <mxPoint x="395" y="210" as="sourcePoint" />
            <mxPoint x="390" y="150" as="targetPoint" />
          </mxGeometry>
        </mxCell>
        <mxCell id="7UnIo0rN0C2pQ48dTLk2-11" value="" style="endArrow=none;html=1;rounded=0;" edge="1" parent="1">
          <mxGeometry width="50" height="50" relative="1" as="geometry">
            <mxPoint x="430" y="220" as="sourcePoint" />
            <mxPoint x="480" y="170" as="targetPoint" />
          </mxGeometry>
        </mxCell>
        <mxCell id="7UnIo0rN0C2pQ48dTLk2-12" value="Briše&lt;div&gt;recept&lt;/div&gt;&lt;div&gt;&lt;br&gt;&lt;/div&gt;" style="ellipse;whiteSpace=wrap;html=1;verticalAlign=top;" vertex="1" parent="1">
          <mxGeometry x="460" y="120" width="80" height="50" as="geometry" />
        </mxCell>
        <mxCell id="7UnIo0rN0C2pQ48dTLk2-13" value="" style="endArrow=none;html=1;rounded=0;" edge="1" parent="1">
          <mxGeometry width="50" height="50" relative="1" as="geometry">
            <mxPoint x="435" y="254.5" as="sourcePoint" />
            <mxPoint x="510" y="254.5" as="targetPoint" />
          </mxGeometry>
        </mxCell>
        <mxCell id="7UnIo0rN0C2pQ48dTLk2-14" value="&lt;div&gt;Menja&lt;/div&gt;&lt;div&gt;recept&lt;/div&gt;&lt;div&gt;&lt;br&gt;&lt;/div&gt;" style="ellipse;whiteSpace=wrap;html=1;verticalAlign=top;" vertex="1" parent="1">
          <mxGeometry x="510" y="230" width="80" height="50" as="geometry" />
        </mxCell>
        <mxCell id="7UnIo0rN0C2pQ48dTLk2-15" value="" style="endArrow=none;html=1;rounded=0;" edge="1" parent="1" target="7UnIo0rN0C2pQ48dTLk2-16">
          <mxGeometry width="50" height="50" relative="1" as="geometry">
            <mxPoint x="430" y="300" as="sourcePoint" />
            <mxPoint x="490" y="350" as="targetPoint" />
          </mxGeometry>
        </mxCell>
        <mxCell id="7UnIo0rN0C2pQ48dTLk2-16" value="Dodaje plan&lt;div&gt;obroka za dan&lt;/div&gt;" style="ellipse;whiteSpace=wrap;html=1;" vertex="1" parent="1">
          <mxGeometry x="490" y="310" width="110" height="60" as="geometry" />
        </mxCell>
        <mxCell id="7UnIo0rN0C2pQ48dTLk2-17" value="" style="endArrow=none;html=1;rounded=0;" edge="1" parent="1">
          <mxGeometry width="50" height="50" relative="1" as="geometry">
            <mxPoint x="400" y="320" as="sourcePoint" />
            <mxPoint x="400" y="400" as="targetPoint" />
          </mxGeometry>
        </mxCell>
        <mxCell id="7UnIo0rN0C2pQ48dTLk2-18" value="Dodaje plan obroka za dan na osnovu specijalne kategorije(vegan, vegetarijanski, alergije)" style="ellipse;whiteSpace=wrap;html=1;" vertex="1" parent="1">
          <mxGeometry x="305" y="400" width="185" height="90" as="geometry" />
        </mxCell>
        <mxCell id="7UnIo0rN0C2pQ48dTLk2-19" value="" style="endArrow=none;html=1;rounded=0;" edge="1" parent="1">
          <mxGeometry width="50" height="50" relative="1" as="geometry">
            <mxPoint x="300" y="350" as="sourcePoint" />
            <mxPoint x="360" y="300" as="targetPoint" />
          </mxGeometry>
        </mxCell>
        <mxCell id="7UnIo0rN0C2pQ48dTLk2-20" value="Pregleda recepte&lt;div&gt;koji se sastoje od&lt;/div&gt;&lt;div&gt;namirnica u kući&lt;/div&gt;" style="ellipse;whiteSpace=wrap;html=1;" vertex="1" parent="1">
          <mxGeometry x="200" y="340" width="120" height="80" as="geometry" />
        </mxCell>
        <mxCell id="7UnIo0rN0C2pQ48dTLk2-21" value="" style="endArrow=none;html=1;rounded=0;" edge="1" parent="1">
          <mxGeometry width="50" height="50" relative="1" as="geometry">
            <mxPoint x="250" y="250" as="sourcePoint" />
            <mxPoint x="355" y="250" as="targetPoint" />
          </mxGeometry>
        </mxCell>
        <mxCell id="7UnIo0rN0C2pQ48dTLk2-22" value="Dodaje plan obroka za dan na osnovu budžeta" style="ellipse;whiteSpace=wrap;html=1;" vertex="1" parent="1">
          <mxGeometry x="150" y="210" width="135" height="80" as="geometry" />
        </mxCell>
        <mxCell id="7UnIo0rN0C2pQ48dTLk2-23" value="" style="endArrow=none;html=1;rounded=0;" edge="1" parent="1">
          <mxGeometry width="50" height="50" relative="1" as="geometry">
            <mxPoint x="300" y="170" as="sourcePoint" />
            <mxPoint x="360" y="220" as="targetPoint" />
          </mxGeometry>
        </mxCell>
        <mxCell id="7UnIo0rN0C2pQ48dTLk2-24" value="Gleda spisak namirnica koje treba da kupi na osnovu plana obroka" style="ellipse;whiteSpace=wrap;html=1;" vertex="1" parent="1">
          <mxGeometry x="185" y="110" width="120" height="80" as="geometry" />
        </mxCell>
      </root>
    </mxGraphModel>
  </diagram>
</mxfile>
